<svg version="1.1" xmlns="http://www.w3.org/2000/svg" style="display: block;" viewBox="0 0 2048 1643" width="637" height="511" preserveAspectRatio="none">
<path transform="translate(0,0)" fill="#ffffff" d="M 988.827 16.43 C 1108.87 10.6276 1225.38 38.4239 1327.85 101.829 C 1337.53 107.825 1346.73 114.912 1356.81 120.225 C 1359.35 119.428 1358.63 119.426 1361.19 119.412 C 1361.04 120.223 1360.28 123.443 1361.29 124.149 C 1430.61 172.591 1488.27 237.371 1530.09 310.789 C 1536.82 322.6 1544.4 336.189 1549.19 348.471 C 1557.65 352.488 1576.52 356.715 1586.53 359.33 C 1604.37 364.044 1622.14 369.043 1639.82 374.324 C 1727.26 401.02 1817.3 437.733 1893.37 488.348 C 1951.7 527.167 2013.32 585.437 2027.35 657.002 C 2048.98 767.275 1952.69 854.489 1867.6 905.255 C 1779.84 957.901 1681.78 993.094 1583.15 1019.33 C 1564.44 1024.3 1544.16 1029.59 1525.27 1033.24 C 1523.8 1056.13 1524.73 1088.1 1524.74 1111.99 L 1524.79 1249.87 C 1524.83 1266.39 1526 1316.74 1523.28 1330.94 C 1520.67 1344.61 1514.09 1357.21 1504.35 1367.17 C 1491.19 1380.77 1473.06 1388.42 1454.13 1388.35 C 1421.68 1388.33 1392.65 1369.19 1384.89 1337.45 C 1377.78 1308.37 1383.45 1291.33 1359.35 1268.02 C 1320.99 1230.94 1258.18 1246.57 1240.1 1296.07 C 1234.85 1310.46 1236.62 1338.35 1236.63 1354.28 L 1236.62 1474.66 C 1236.62 1490.02 1236.59 1505.51 1236.54 1520.86 C 1236.43 1548.45 1236.23 1570.55 1215.94 1591.29 C 1202.58 1605.23 1184.13 1613.16 1164.82 1613.27 C 1144.84 1613.42 1126.43 1605.37 1112.3 1591.36 C 1103.1 1582.05 1096.85 1570.23 1094.34 1557.38 C 1091.99 1545.77 1093.03 1528.01 1092.48 1515.9 C 1091.62 1497.23 1091.59 1478.72 1091.58 1460.04 L 1091.79 1274.5 C 1091.5 1211.86 1094.24 1148.01 1092.58 1085.23 C 1047.06 1085.05 992.563 1088.52 947.53 1084.74 C 946.335 1108.41 950.174 1134.01 940.277 1155.87 C 932.531 1173.02 918.308 1186.41 900.719 1193.09 C 883.576 1199.53 861.572 1198.95 844.914 1191.29 C 834.092 1186.34 824.705 1178.72 817.632 1169.15 C 793.414 1136.43 810.558 1110.49 798.314 1077.66 L 797.812 1076.33 C 785.697 1074.13 767.896 1073.04 755.238 1071.71 L 670.799 1062.99 C 666.718 1069.88 661.044 1079.92 659.919 1087.97 C 656.756 1110.61 657.834 1137.26 657.836 1160.27 L 657.911 1284.37 C 657.942 1302.51 659.524 1327.92 655.073 1345.03 C 641.561 1396.96 573.898 1415.06 536.253 1378.1 C 525.657 1367.68 518.476 1354.28 515.663 1339.69 C 513.567 1328.43 514.13 1311.08 514.174 1299.05 L 514.275 1246.14 L 514.158 1031.8 C 360.96 994.806 72.6898 906.484 22.067 734.631 C -32.418 549.668 240.903 425.415 378.737 382.679 C 416.342 371.019 456.204 361.2 494.875 349.565 C 503.362 334.76 510.628 319.118 519.006 304.416 C 536.995 273.305 557.961 244.013 581.608 216.953 C 687.761 96.515 827.948 26.3002 988.827 16.43 z"/>
</svg>
